<svg xmlns="http://www.w3.org/2000/svg" width="25" height="25.579" viewBox="0 0 25 25.579"><defs><style>.a{fill:#3b5998;}</style></defs><path class="a" d="M25.562,13.43A12.685,12.685,0,0,0,13.062.563,12.685,12.685,0,0,0,.562,13.43,12.764,12.764,0,0,0,11.109,26.141V17.149H7.934V13.43h3.175V10.595c0-3.225,1.865-5.006,4.721-5.006a18.7,18.7,0,0,1,2.8.251V9H17.052a1.834,1.834,0,0,0-2.037,2.009V13.43h3.467l-.554,3.72H15.016v8.992A12.764,12.764,0,0,0,25.562,13.43Z" transform="translate(-0.562 -0.563)"/></svg>